<svg width="142" height="142" viewBox="0 0 142 142" fill="none" xmlns="http://www.w3.org/2000/svg">
<path d="M107.27 45.476C109.201 43.3556 109.056 40.151 106.947 38.3183C104.838 36.4857 101.563 36.7189 99.6322 38.8393L46.2198 97.4962C44.289 99.6166 44.4336 102.821 46.5427 104.654C48.6518 106.487 51.9268 106.253 53.8576 104.133L107.27 45.476Z" fill="#D9D9D9"/>
<path d="M109.108 61.3927L109.108 61.3927C106.999 59.56 103.683 59.8384 101.701 62.0144L58.6477 109.296C56.6662 111.472 56.7696 114.721 58.8788 116.554C60.9879 118.387 64.304 118.108 66.2855 115.932L109.339 68.6511C111.321 66.4751 111.217 63.2253 109.108 61.3927Z" fill="#D9D9D9"/>
<path d="M83.5062 39.1465L83.5062 39.1464C81.397 37.3138 78.0681 37.6062 76.0709 39.7996L32.6742 87.4574C30.6769 89.6507 30.7676 92.9145 32.8768 94.7472C34.9859 96.5798 38.3148 96.2874 40.3121 94.094L83.7087 46.4363C85.706 44.2429 85.6153 40.9791 83.5062 39.1465Z" fill="#D9D9D9"/>
<path d="M102.82 102.82C104.772 104.772 104.787 107.96 102.649 109.708C98.8726 112.796 94.6575 115.32 90.1342 117.194C84.0679 119.707 77.5661 121 71 121C64.4339 121 57.9321 119.707 51.8658 117.194C45.7995 114.681 40.2876 110.998 35.6447 106.355C31.0017 101.712 27.3188 96.2004 24.806 90.1342C22.2933 84.0679 21 77.5661 21 71C21 64.4339 22.2933 57.9321 24.806 51.8658C26.6796 47.3425 29.2039 43.1274 32.2916 39.3509C34.0395 37.2131 37.2276 37.2276 39.1802 39.1802V39.1802C41.1328 41.1328 41.104 44.2819 39.4101 46.4628C37.2218 49.2799 35.4156 52.3832 34.0448 55.6926C32.0346 60.5457 31 65.7471 31 71C31 76.2529 32.0346 81.4543 34.0448 86.3073C36.055 91.1603 39.0014 95.5699 42.7157 99.2843C46.4301 102.999 50.8396 105.945 55.6927 107.955C60.5457 109.965 65.7471 111 71 111C76.2529 111 81.4543 109.965 86.3073 107.955C89.6168 106.584 92.72 104.778 95.5372 102.59C97.7181 100.896 100.867 100.867 102.82 102.82V102.82Z" fill="#D9D9D9"/>
</svg>
